<svg xmlns="http://www.w3.org/2000/svg" viewBox="0 0 16 16" fill="#ffdb70" id="File-C-Sharp-Thin--Streamline-Phosphor-Thin" height="16" width="16">
  <desc>
    File C Sharp Thin Streamline Icon: https://streamlinehq.com
  </desc>
  <path d="M1.728 12.0768c0 1.03723125 0.7056 1.8816 1.568 1.8816 0.39166875 -0.00614375 0.7634875 -0.173475 1.027825 -0.4625625 0.167175 -0.17441875 0.460475 -0.10245625 0.5279375 0.12953125 0.03130625 0.10766875 0.0028 0.2238625 -0.0747875 0.30480625 -0.38256875 0.41276875 -0.91820625 0.649825 -1.480975 0.655425 -1.21049375 0 -2.1952 -1.125825 -2.1952 -2.5088S2.08550625 9.568 3.296 9.568c0.56276875 0.0056 1.09840625 0.24265625 1.480975 0.655425 0.167175 0.17441875 0.08285 0.4644 -0.1517875 0.52196875 -0.1089 0.02671875 -0.223775 -0.0066875 -0.3013625 -0.08763125 -0.2643375 -0.2890875 -0.63615625 -0.45641875 -1.027825 -0.4625625 -0.8624 0 -1.568 0.84436875 -1.568 1.8816ZM14.8992 4.864v10.6624c0 0.2414125 -0.26133125 0.3922875 -0.4704 0.2715875 -0.09703125 -0.05601875 -0.1568 -0.15955 -0.1568 -0.2715875V5.1776h-4.0768c-0.17319375 0 -0.3136 -0.14040625 -0.3136 -0.3136V0.7872H2.6688c-0.17319375 0 -0.3136 0.14040625 -0.3136 0.3136v5.6448c0 0.2414125 -0.26133125 0.3922875 -0.4704 0.2715875 -0.09703125 -0.05601875 -0.1568 -0.15955 -0.1568 -0.2715875V1.1008c0 -0.5195875 0.4212125 -0.9408 0.9408 -0.9408h7.5264c0.0832 -0.0000625 0.1630125 0.03293125 0.221875 0.09173125l4.3904 4.3904c0.05879375 0.05885625 0.0917875 0.138675 0.091725 0.22186875Zm-4.3904 -0.3136h3.31945625l-3.31945625 -3.3202375Zm0.6272 6.272v1.8816h0.9408c0.2414125 0.0000125 0.39229375 0.26135 0.27158125 0.4704125 -0.056025 0.09701875 -0.15955 0.1567875 -0.27158125 0.1567875H11.136v0.9408c0 0.2414125 -0.26133125 0.3922875 -0.4704 0.2715875 -0.09703125 -0.05601875 -0.1568 -0.15955 -0.1568 -0.2715875v-0.9408h-1.8816v0.9408c0 0.2414125 -0.26133125 0.3922875 -0.4704 0.2715875 -0.09703125 -0.05601875 -0.1568 -0.15955 -0.1568 -0.2715875v-0.9408h-0.9408c-0.2414125 0 -0.3922875 -0.26133125 -0.2715875 -0.4704 0.05601875 -0.097025 0.15955625 -0.15679375 0.2715875 -0.1568H8v-1.8816h-0.9408c-0.2414125 0 -0.3922875 -0.26133125 -0.2715875 -0.4704 0.05601875 -0.097025 0.15955625 -0.15679375 0.2715875 -0.1568H8v-0.9408c0 -0.24140625 0.26133125 -0.3922875 0.4704 -0.2715875 0.09703125 0.05601875 0.1568 0.15955 0.1568 0.2715875v0.9408h1.8816v-0.9408c0 -0.24140625 0.26133125 -0.3922875 0.4704 -0.2715875 0.09703125 0.05601875 0.1568 0.15955 0.1568 0.2715875v0.9408h0.9408c0.2414125 0.0000125 0.39229375 0.26135 0.27158125 0.4704125 -0.056025 0.09701875 -0.15955 0.1567875 -0.27158125 0.1567875Zm-0.6272 0h-1.8816v1.8816h1.8816Z" stroke-width="0.0625"></path>
</svg>