<svg xmlns="http://www.w3.org/2000/svg" viewBox="0 0 16 16" fill="#ffdb70" id="Letter-Circle-P-Thin--Streamline-Phosphor-Thin" height="16" width="16">
  <desc>
    Letter Circle P Thin Streamline Icon: https://streamlinehq.com
  </desc>
  <path d="M8 0.16c-6.0352375 0 -9.80725625 6.53333125 -6.7896375 11.76 3.01761875 5.22666875 10.56165625 5.22666875 13.579275 0C15.47774375 10.72816875 15.84 9.37620625 15.84 8 15.83525 3.67205625 12.32794375 0.16475 8 0.16Zm0 15.0528c-5.55241875 0 -9.022675 -6.01066875 -6.24646875 -10.8192 2.77620625 -4.80853125 9.71673125 -4.80853125 12.4929375 0 0.63305625 1.09648125 0.96633125 2.3402875 0.96633125 3.6064 -0.00431875 3.981725 -3.231075 7.20848125 -7.2128 7.2128Zm0.6272 -10.6624H6.1184c-0.17319375 0 -0.3136 0.14040625 -0.3136 0.3136v6.272c0 0.2414125 0.26133125 0.3922875 0.4704 0.2715875 0.09703125 -0.05601875 0.1568 -0.15955 0.1568 -0.2715875v-1.568h2.1952c1.931275 -0.0000875 3.13834375 -2.09080625 2.17263125 -3.7633 -0.44816875 -0.77616875 -1.2763625 -1.2543 -2.17263125 -1.2543Zm0 4.3904H6.432V5.1776h2.1952c1.44845625 0 2.35374375 1.568 1.6295125 2.8224 -0.3361 0.58214375 -0.9573125 0.94076875 -1.6295125 0.9408Z" stroke-width="0.0625"></path>
</svg>