<!DOCTYPE svg PUBLIC "-//W3C//DTD SVG 1.1//EN" "http://www.w3.org/Graphics/SVG/1.1/DTD/svg11.dtd">
<!-- Uploaded to: SVG Repo, www.svgrepo.com, Transformed by: SVG Repo Mixer Tools -->
<svg fill="#ffdb70" height="800px" width="800px" version="1.1" id="Layer_1" xmlns="http://www.w3.org/2000/svg" xmlns:xlink="http://www.w3.org/1999/xlink" viewBox="0 0 512.004 512.004" xml:space="preserve" stroke="#ffdb70">
<g id="SVGRepo_bgCarrier" stroke-width="0"/>
<g id="SVGRepo_tracerCarrier" stroke-linecap="round" stroke-linejoin="round"/>
<g id="SVGRepo_iconCarrier"> <g> <g> <path d="M142.636,280.002h-22.824c-11.028,0-19.812-8.992-19.812-20.02v-8.336c0-11.028,8.784-19.644,19.812-19.644h22.796 c2.72-12,7.548-24,14.12-36H36.124C16.272,196.002,0,212.086,0,231.938v47.752c0,19.852,16.272,36.312,36.124,36.312H156.8 C150.212,304.002,145.372,292.002,142.636,280.002z M55.752,279.566c-13.1,0-23.752-10.656-23.752-23.752 c0-13.096,10.652-23.748,23.752-23.748c13.1,0,23.752,10.652,23.752,23.748C79.504,268.91,68.848,279.566,55.752,279.566z"/> </g> </g> <g> <g> <path d="M475.42,196.002H355.3c8.916,16,14.62,31.604,16.192,49.664c2.976-3.652,7.444-6.048,12.508-6.048 c8.936,0,16.208,7.264,16.208,16.2s-7.272,16.208-16.208,16.208c-5.068,0-9.544-2.232-12.516-5.884 c-1.588,18.064-7.312,33.86-16.252,49.86h120.192c19.852,0,36.58-16.46,36.58-36.312v-47.752 C512,212.086,495.272,196.002,475.42,196.002z M424.004,272.018c-8.936,0-16.208-7.268-16.208-16.204 c0-8.936,7.268-16.208,16.208-16.208s16.212,7.272,16.212,16.208C440.216,264.75,432.94,272.018,424.004,272.018z M464.056,272.018c-8.936,0-16.208-7.268-16.208-16.204c0-8.936,7.268-16.208,16.208-16.208s16.212,7.272,16.212,16.208 C480.268,264.75,472.992,272.018,464.056,272.018z"/> </g> </g> <g> <g> <path d="M475.42,52.002H36.124C16.272,52.002,0,68.214,0,88.066v47.752c0,19.848,16.272,36.184,36.124,36.184h140.032 c20.812-20,48.928-32.004,79.86-32.004c30.932,0,59.048,12.004,79.86,32.004h139.548c19.852,0,36.58-16.336,36.58-36.188V88.066 C512,68.214,495.272,52.002,475.42,52.002z M55.752,135.69c-13.1,0-23.752-10.652-23.752-23.752 c0-13.096,10.652-23.752,23.752-23.752c13.1,0,23.752,10.656,23.752,23.752C79.5,125.038,68.848,135.69,55.752,135.69z M356,116.002c0,11.048-8.952,20-20,20H120c-11.048,0-20-8.952-20-20v-8c0-11.048,8.952-20,20-20h216c11.048,0,20,8.952,20,20 V116.002z M384,128.146c-8.936,0-16.208-7.268-16.208-16.208S375.06,95.73,384,95.73s16.208,7.272,16.208,16.208 C400.208,120.874,392.936,128.146,384,128.146z M424.004,128.146c-8.936,0-16.208-7.268-16.208-16.208s7.268-16.208,16.208-16.208 s16.212,7.272,16.212,16.208C440.216,120.874,432.94,128.146,424.004,128.146z M464.056,128.146 c-8.936,0-16.208-7.268-16.208-16.208s7.268-16.208,16.208-16.208s16.212,7.272,16.212,16.208 C480.268,120.874,472.992,128.146,464.056,128.146z"/> </g> </g> <g> <g> <path d="M475.42,340.002H335.876c-20.812,20-48.928,32.004-79.86,32.004s-59.048-12.004-79.86-32.004H36.124 C16.272,340.002,0,355.838,0,375.69v47.752c0,19.848,16.272,36.56,36.124,36.56H475.42c19.852,0,36.58-16.712,36.58-36.564V375.69 C512,355.838,495.272,340.002,475.42,340.002z M55.752,423.314C42.656,423.314,32,412.662,32,399.562 c0-13.092,10.652-23.752,23.752-23.752c13.1,0,23.752,10.656,23.752,23.752C79.5,412.662,68.848,423.314,55.752,423.314z M356,404.002c0,11.048-8.952,20-20,20H120c-11.048,0-20-8.952-20-20v-8c0-11.048,8.952-20,20-20h216c11.048,0,20,8.952,20,20 V404.002z M384,415.77c-8.936,0-16.208-7.268-16.208-16.208S375.06,383.35,384,383.35s16.208,7.272,16.208,16.212 S392.936,415.77,384,415.77z M424.004,415.77c-8.936,0-16.208-7.268-16.208-16.208s7.268-16.212,16.208-16.212 s16.212,7.272,16.212,16.212S432.94,415.77,424.004,415.77z M464.056,415.77c-8.936,0-16.208-7.268-16.208-16.208 s7.268-16.212,16.208-16.212s16.212,7.272,16.212,16.212S472.992,415.77,464.056,415.77z"/> </g> </g> <g> <g> <path d="M289.096,218.218c-3.628-3.624-8.452-5.624-13.584-5.624s-9.956,2-13.584,5.628c-7.488,7.492-7.488,19.676,0,27.168 c3.628,3.632,8.452,5.628,13.584,5.628c5.132,0,9.956-2,13.584-5.628s5.628-8.452,5.628-13.584 C294.724,226.674,292.724,221.846,289.096,218.218z"/> </g> </g> <g> <g> <path d="M256.016,163.87c-50.78,0-91.944,41.168-91.944,91.94c0,50.78,41.164,91.94,91.944,91.94 c50.78,0,91.944-41.16,91.944-91.94C347.96,205.038,306.796,163.87,256.016,163.87z M306.26,262.558 c-8.2,8.208-19.1,12.724-30.704,12.724c-7.772,0-15.28-2.036-21.912-5.908l-37.484,39.824c-2.24,2.24-5.092,3.416-8.128,3.416 c-3.04,0-5.896-1.176-8.044-3.32c-4.436-4.448-4.432-11.668-0.004-16.1l39.424-37.124c-11.544-17.104-9.508-40.148,5.344-55.008 c8.216-8.216,19.14-12.74,30.756-12.74s22.536,4.524,30.748,12.74c8.216,8.212,12.744,19.136,12.744,30.752 C319.004,243.426,314.476,254.346,306.26,262.558z"/> </g> </g> </g>
</svg>